<svg width="195" height="81" viewBox="0 0 195 81" fill="none" xmlns="http://www.w3.org/2000/svg">
<path d="M82.125 38V20.5455H89.6591C90.9545 20.5455 92.0881 20.7812 93.0597 21.2528C94.0313 21.7244 94.7869 22.4034 95.3267 23.2898C95.8665 24.1761 96.1364 25.2386 96.1364 26.4773C96.1364 27.7273 95.858 28.7812 95.3011 29.6392C94.75 30.4972 93.9744 31.1449 92.9744 31.5824C91.9801 32.0199 90.8182 32.2386 89.4886 32.2386H84.9886V28.5568H88.5341C89.0909 28.5568 89.5653 28.4886 89.9574 28.3523C90.3551 28.2102 90.6591 27.9858 90.8693 27.679C91.0852 27.3722 91.1932 26.9716 91.1932 26.4773C91.1932 25.9773 91.0852 25.571 90.8693 25.2585C90.6591 24.9403 90.3551 24.7074 89.9574 24.5597C89.5653 24.4062 89.0909 24.3295 88.5341 24.3295H86.8636V38H82.125ZM92.3523 29.9886L96.7159 38H91.5682L87.3068 29.9886H92.3523ZM104.25 38.2386C102.83 38.2386 101.614 37.9574 100.602 37.3949C99.5909 36.8267 98.8153 36.0369 98.2756 35.0256C97.7358 34.0085 97.4659 32.8295 97.4659 31.4886C97.4659 30.1477 97.7358 28.9716 98.2756 27.9602C98.8153 26.9432 99.5909 26.1534 100.602 25.5909C101.614 25.0227 102.83 24.7386 104.25 24.7386C105.67 24.7386 106.886 25.0227 107.898 25.5909C108.909 26.1534 109.685 26.9432 110.224 27.9602C110.764 28.9716 111.034 30.1477 111.034 31.4886C111.034 32.8295 110.764 34.0085 110.224 35.0256C109.685 36.0369 108.909 36.8267 107.898 37.3949C106.886 37.9574 105.67 38.2386 104.25 38.2386ZM104.284 34.7614C104.682 34.7614 105.026 34.6278 105.315 34.3608C105.605 34.0937 105.83 33.7131 105.989 33.2188C106.148 32.7244 106.227 32.1364 106.227 31.4545C106.227 30.767 106.148 30.179 105.989 29.6903C105.83 29.196 105.605 28.8153 105.315 28.5483C105.026 28.2812 104.682 28.1477 104.284 28.1477C103.864 28.1477 103.503 28.2812 103.202 28.5483C102.901 28.8153 102.67 29.196 102.511 29.6903C102.352 30.179 102.273 30.767 102.273 31.4545C102.273 32.1364 102.352 32.7244 102.511 33.2188C102.67 33.7131 102.901 34.0937 103.202 34.3608C103.503 34.6278 103.864 34.7614 104.284 34.7614ZM120.75 24.9091V28.3182H112.125V24.9091H120.75ZM113.795 21.7727H118.5V33.7898C118.5 33.9716 118.531 34.125 118.594 34.25C118.656 34.3693 118.753 34.4602 118.884 34.5227C119.014 34.5795 119.182 34.608 119.386 34.608C119.528 34.608 119.693 34.5909 119.881 34.5568C120.074 34.5227 120.216 34.4943 120.307 34.4716L120.989 37.7784C120.778 37.8409 120.477 37.9176 120.085 38.0085C119.699 38.0994 119.239 38.1591 118.705 38.1875C117.625 38.2443 116.719 38.1335 115.986 37.8551C115.253 37.571 114.702 37.125 114.332 36.517C113.963 35.9091 113.784 35.1477 113.795 34.233V21.7727ZM126.317 38.2045C125.482 38.2045 124.744 38.0682 124.102 37.7955C123.465 37.517 122.965 37.0966 122.602 36.5341C122.238 35.9716 122.056 35.2557 122.056 34.3864C122.056 33.6705 122.178 33.0597 122.423 32.554C122.667 32.0426 123.008 31.625 123.445 31.3011C123.883 30.9773 124.391 30.7301 124.971 30.5597C125.556 30.3892 126.187 30.2784 126.863 30.2273C127.596 30.1705 128.184 30.1023 128.627 30.0227C129.076 29.9375 129.4 29.821 129.599 29.6733C129.798 29.5199 129.897 29.3182 129.897 29.0682V29.0341C129.897 28.6932 129.766 28.4318 129.505 28.25C129.244 28.0682 128.908 27.9773 128.499 27.9773C128.05 27.9773 127.684 28.0767 127.4 28.2756C127.121 28.4687 126.954 28.767 126.897 29.1705H122.567C122.624 28.375 122.877 27.642 123.326 26.9716C123.781 26.2955 124.442 25.7557 125.312 25.3523C126.181 24.9432 127.266 24.7386 128.567 24.7386C129.505 24.7386 130.346 24.8494 131.09 25.071C131.835 25.2869 132.468 25.5909 132.991 25.983C133.513 26.3693 133.911 26.8239 134.184 27.3466C134.462 27.8636 134.602 28.4261 134.602 29.0341V38H130.204V36.1591H130.102C129.84 36.6477 129.522 37.0426 129.147 37.3438C128.778 37.6449 128.354 37.8636 127.877 38C127.406 38.1364 126.886 38.2045 126.317 38.2045ZM127.852 35.2386C128.21 35.2386 128.545 35.1648 128.857 35.017C129.175 34.8693 129.434 34.6562 129.633 34.3778C129.832 34.0994 129.931 33.7614 129.931 33.3636V32.2727C129.806 32.3239 129.673 32.3722 129.531 32.4176C129.394 32.4631 129.246 32.5057 129.087 32.5455C128.934 32.5852 128.769 32.6222 128.593 32.6562C128.423 32.6903 128.244 32.7216 128.056 32.75C127.692 32.8068 127.394 32.9006 127.161 33.0312C126.934 33.1562 126.763 33.3125 126.65 33.5C126.542 33.6818 126.488 33.8864 126.488 34.1136C126.488 34.4773 126.616 34.7557 126.871 34.9489C127.127 35.142 127.454 35.2386 127.852 35.2386ZM82.125 67V49.5455H86.8636V63.1818H93.9205V67H82.125ZM104.393 61.2727V53.9091H109.097V67H104.631V64.5114H104.495C104.211 65.3466 103.714 66 103.004 66.4716C102.293 66.9375 101.45 67.1705 100.472 67.1705C99.5575 67.1705 98.7564 66.9602 98.0689 66.5398C97.3871 66.1193 96.8558 65.5398 96.4751 64.8011C96.1001 64.0625 95.9098 63.2159 95.9041 62.2614V53.9091H100.609V61.2727C100.614 61.9205 100.779 62.429 101.103 62.7983C101.433 63.1676 101.893 63.3523 102.484 63.3523C102.876 63.3523 103.214 63.2699 103.498 63.1051C103.788 62.9347 104.009 62.696 104.163 62.3892C104.322 62.0767 104.398 61.7045 104.393 61.2727ZM117.797 67.2386C116.376 67.2386 115.161 66.9574 114.149 66.3949C113.138 65.8267 112.362 65.0369 111.822 64.0256C111.283 63.0085 111.013 61.8295 111.013 60.4886C111.013 59.1477 111.283 57.9716 111.822 56.9602C112.362 55.9432 113.138 55.1534 114.149 54.5909C115.161 54.0227 116.376 53.7386 117.797 53.7386C119.081 53.7386 120.192 53.9716 121.129 54.4375C122.072 54.8977 122.803 55.5511 123.32 56.3977C123.837 57.2386 124.098 58.2273 124.104 59.3636H119.74C119.678 58.6761 119.479 58.1534 119.143 57.7955C118.814 57.4318 118.388 57.25 117.865 57.25C117.456 57.25 117.098 57.3693 116.791 57.608C116.484 57.8409 116.246 58.196 116.075 58.6733C115.905 59.1449 115.82 59.7386 115.82 60.4545C115.82 61.1705 115.905 61.767 116.075 62.2443C116.246 62.7159 116.484 63.071 116.791 63.3097C117.098 63.5426 117.456 63.6591 117.865 63.6591C118.212 63.6591 118.518 63.5795 118.786 63.4205C119.053 63.2557 119.268 63.017 119.433 62.7045C119.604 62.3864 119.706 62 119.74 61.5455H124.104C124.087 62.6989 123.822 63.7045 123.311 64.5625C122.8 65.4148 122.075 66.0739 121.138 66.5398C120.206 67.0057 119.092 67.2386 117.797 67.2386ZM126.045 67V53.9091H130.613V56.3977H130.749C130.988 55.4773 131.366 54.804 131.883 54.3778C132.406 53.9517 133.016 53.7386 133.715 53.7386C133.92 53.7386 134.121 53.7557 134.32 53.7898C134.525 53.8182 134.721 53.8608 134.908 53.9176V57.9318C134.675 57.8523 134.388 57.7926 134.048 57.7528C133.707 57.7131 133.414 57.6932 133.17 57.6932C132.71 57.6932 132.295 57.7983 131.925 58.0085C131.562 58.2131 131.275 58.5028 131.065 58.8778C130.854 59.2472 130.749 59.6818 130.749 60.1818V67H126.045ZM139.489 67.2045C138.654 67.2045 137.915 67.0682 137.273 66.7955C136.637 66.517 136.137 66.0966 135.773 65.5341C135.41 64.9716 135.228 64.2557 135.228 63.3864C135.228 62.6705 135.35 62.0597 135.594 61.554C135.839 61.0426 136.18 60.625 136.617 60.3011C137.055 59.9773 137.563 59.7301 138.143 59.5597C138.728 59.3892 139.359 59.2784 140.035 59.2273C140.768 59.1705 141.356 59.1023 141.799 59.0227C142.248 58.9375 142.572 58.821 142.771 58.6733C142.969 58.5199 143.069 58.3182 143.069 58.0682V58.0341C143.069 57.6932 142.938 57.4318 142.677 57.25C142.415 57.0682 142.08 56.9773 141.671 56.9773C141.222 56.9773 140.856 57.0767 140.572 57.2756C140.293 57.4687 140.126 57.767 140.069 58.1705H135.739C135.796 57.375 136.049 56.642 136.498 55.9716C136.952 55.2955 137.614 54.7557 138.484 54.3523C139.353 53.9432 140.438 53.7386 141.739 53.7386C142.677 53.7386 143.518 53.8494 144.262 54.071C145.006 54.2869 145.64 54.5909 146.163 54.983C146.685 55.3693 147.083 55.8239 147.356 56.3466C147.634 56.8636 147.773 57.4261 147.773 58.0341V67H143.376V65.1591H143.273C143.012 65.6477 142.694 66.0426 142.319 66.3438C141.95 66.6449 141.526 66.8636 141.049 67C140.577 67.1364 140.058 67.2045 139.489 67.2045ZM141.023 64.2386C141.381 64.2386 141.717 64.1648 142.029 64.017C142.347 63.8693 142.606 63.6562 142.805 63.3778C143.004 63.0994 143.103 62.7614 143.103 62.3636V61.2727C142.978 61.3239 142.844 61.3722 142.702 61.4176C142.566 61.4631 142.418 61.5057 142.259 61.5455C142.106 61.5852 141.941 61.6222 141.765 61.6562C141.594 61.6903 141.415 61.7216 141.228 61.75C140.864 61.8068 140.566 61.9006 140.333 62.0312C140.106 62.1562 139.935 62.3125 139.822 62.5C139.714 62.6818 139.66 62.8864 139.66 63.1136C139.66 63.4773 139.788 63.7557 140.043 63.9489C140.299 64.142 140.626 64.2386 141.023 64.2386ZM157.828 53.9091V57.3182H149.203V53.9091H157.828ZM150.874 50.7727H155.578V62.7898C155.578 62.9716 155.609 63.125 155.672 63.25C155.734 63.3693 155.831 63.4602 155.962 63.5227C156.092 63.5795 156.26 63.608 156.464 63.608C156.607 63.608 156.771 63.5909 156.959 63.5568C157.152 63.5227 157.294 63.4943 157.385 63.4716L158.067 66.7784C157.857 66.8409 157.555 66.9176 157.163 67.0085C156.777 67.0994 156.317 67.1591 155.783 67.1875C154.703 67.2443 153.797 67.1335 153.064 66.8551C152.331 66.571 151.78 66.125 151.411 65.517C151.041 64.9091 150.862 64.1477 150.874 63.233V50.7727ZM159.748 67V53.9091H164.452V67H159.748ZM162.1 52.5455C161.464 52.5455 160.918 52.3352 160.464 51.9148C160.009 51.4943 159.782 50.9886 159.782 50.3977C159.782 49.8068 160.009 49.3011 160.464 48.8807C160.918 48.4602 161.464 48.25 162.1 48.25C162.742 48.25 163.288 48.4602 163.737 48.8807C164.191 49.3011 164.418 49.8068 164.418 50.3977C164.418 50.9886 164.191 51.4943 163.737 51.9148C163.288 52.3352 162.742 52.5455 162.1 52.5455ZM180.043 53.9091L175.645 67H170.19L165.793 53.9091H170.736L172.849 62.5682H172.986L175.099 53.9091H180.043ZM184.7 67.2045C183.865 67.2045 183.126 67.0682 182.484 66.7955C181.848 66.517 181.348 66.0966 180.984 65.5341C180.621 64.9716 180.439 64.2557 180.439 63.3864C180.439 62.6705 180.561 62.0597 180.805 61.554C181.05 61.0426 181.391 60.625 181.828 60.3011C182.266 59.9773 182.774 59.7301 183.354 59.5597C183.939 59.3892 184.57 59.2784 185.246 59.2273C185.979 59.1705 186.567 59.1023 187.01 59.0227C187.459 58.9375 187.783 58.821 187.982 58.6733C188.18 58.5199 188.28 58.3182 188.28 58.0682V58.0341C188.28 57.6932 188.149 57.4318 187.888 57.25C187.626 57.0682 187.291 56.9773 186.882 56.9773C186.433 56.9773 186.067 57.0767 185.783 57.2756C185.504 57.4687 185.337 57.767 185.28 58.1705H180.95C181.007 57.375 181.26 56.642 181.709 55.9716C182.163 55.2955 182.825 54.7557 183.695 54.3523C184.564 53.9432 185.649 53.7386 186.95 53.7386C187.888 53.7386 188.729 53.8494 189.473 54.071C190.217 54.2869 190.851 54.5909 191.374 54.983C191.896 55.3693 192.294 55.8239 192.567 56.3466C192.845 56.8636 192.984 57.4261 192.984 58.0341V67H188.587V65.1591H188.484C188.223 65.6477 187.905 66.0426 187.53 66.3438C187.161 66.6449 186.737 66.8636 186.26 67C185.788 67.1364 185.268 67.2045 184.7 67.2045ZM186.234 64.2386C186.592 64.2386 186.928 64.1648 187.24 64.017C187.558 63.8693 187.817 63.6562 188.016 63.3778C188.214 63.0994 188.314 62.7614 188.314 62.3636V61.2727C188.189 61.3239 188.055 61.3722 187.913 61.4176C187.777 61.4631 187.629 61.5057 187.47 61.5455C187.317 61.5852 187.152 61.6222 186.976 61.6562C186.805 61.6903 186.626 61.7216 186.439 61.75C186.075 61.8068 185.777 61.9006 185.544 62.0312C185.317 62.1562 185.146 62.3125 185.033 62.5C184.925 62.6818 184.871 62.8864 184.871 63.1136C184.871 63.4773 184.999 63.7557 185.254 63.9489C185.51 64.142 185.837 64.2386 186.234 64.2386Z" fill="white"/>
<path d="M16.875 37.125L21.9375 21.9375H59.0625L64.125 37.125M59.0625 54C57.7198 54 56.4322 53.4666 55.4828 52.5172C54.5334 51.5678 54 50.2802 54 48.9375C54 47.5948 54.5334 46.3072 55.4828 45.3578C56.4322 44.4084 57.7198 43.875 59.0625 43.875C60.4052 43.875 61.6928 44.4084 62.6422 45.3578C63.5916 46.3072 64.125 47.5948 64.125 48.9375C64.125 50.2802 63.5916 51.5678 62.6422 52.5172C61.6928 53.4666 60.4052 54 59.0625 54ZM21.9375 54C20.5948 54 19.3072 53.4666 18.3578 52.5172C17.4084 51.5678 16.875 50.2802 16.875 48.9375C16.875 47.5948 17.4084 46.3072 18.3578 45.3578C19.3072 44.4084 20.5948 43.875 21.9375 43.875C23.2802 43.875 24.5678 44.4084 25.5172 45.3578C26.4666 46.3072 27 47.5948 27 48.9375C27 50.2802 26.4666 51.5678 25.5172 52.5172C24.5678 53.4666 23.2802 54 21.9375 54ZM63.855 20.25C63.18 18.2925 61.29 16.875 59.0625 16.875H21.9375C19.71 16.875 17.82 18.2925 17.145 20.25L10.125 40.5V67.5C10.125 68.3951 10.4806 69.2536 11.1135 69.8865C11.7464 70.5194 12.6049 70.875 13.5 70.875H16.875C17.7701 70.875 18.6285 70.5194 19.2615 69.8865C19.8944 69.2536 20.25 68.3951 20.25 67.5V64.125H60.75V67.5C60.75 68.3951 61.1056 69.2536 61.7385 69.8865C62.3714 70.5194 63.2299 70.875 64.125 70.875H67.5C68.3951 70.875 69.2536 70.5194 69.8865 69.8865C70.5194 69.2536 70.875 68.3951 70.875 67.5V40.5L63.855 20.25Z" fill="white"/>
</svg>
