<svg width="61" height="55" viewBox="0 0 61 55" fill="none" xmlns="http://www.w3.org/2000/svg">
<path d="M6.875 21.125L11.9375 5.9375H49.0625L54.125 21.125M49.0625 38C47.7198 38 46.4322 37.4666 45.4828 36.5172C44.5334 35.5678 44 34.2802 44 32.9375C44 31.5948 44.5334 30.3072 45.4828 29.3578C46.4322 28.4084 47.7198 27.875 49.0625 27.875C50.4052 27.875 51.6928 28.4084 52.6422 29.3578C53.5916 30.3072 54.125 31.5948 54.125 32.9375C54.125 34.2802 53.5916 35.5678 52.6422 36.5172C51.6928 37.4666 50.4052 38 49.0625 38ZM11.9375 38C10.5948 38 9.30717 37.4666 8.35777 36.5172C7.40837 35.5678 6.875 34.2802 6.875 32.9375C6.875 31.5948 7.40837 30.3072 8.35777 29.3578C9.30717 28.4084 10.5948 27.875 11.9375 27.875C13.2802 27.875 14.5678 28.4084 15.5172 29.3578C16.4666 30.3072 17 31.5948 17 32.9375C17 34.2802 16.4666 35.5678 15.5172 36.5172C14.5678 37.4666 13.2802 38 11.9375 38ZM53.855 4.25C53.18 2.2925 51.29 0.875 49.0625 0.875H11.9375C9.71 0.875 7.82 2.2925 7.145 4.25L0.125 24.5V51.5C0.125 52.3951 0.480579 53.2536 1.11351 53.8865C1.74645 54.5194 2.60489 54.875 3.5 54.875H6.875C7.77011 54.875 8.62855 54.5194 9.26149 53.8865C9.89442 53.2536 10.25 52.3951 10.25 51.5V48.125H50.75V51.5C50.75 52.3951 51.1056 53.2536 51.7385 53.8865C52.3714 54.5194 53.2299 54.875 54.125 54.875H57.5C58.3951 54.875 59.2536 54.5194 59.8865 53.8865C60.5194 53.2536 60.875 52.3951 60.875 51.5V24.5L53.855 4.25Z" fill="white"/>
</svg>
