<svg width="20" height="20" viewBox="0 0 20 20" xmlns="http://www.w3.org/2000/svg">
<path d="M17.0589 4.29873C16.133 2.93117 15.0326 1.84725 13.821 1.10946C12.6095 0.371679 11.3109 -0.00537 9.99998 5.77775e-05H9.96427C4.47053 0.0276893 0 6.71057 0 14.8855V17.8947C0 18.4531 0.150509 18.9886 0.418418 19.3834C0.686327 19.7782 1.04969 20 1.42857 20H18.5714C18.9503 20 19.3136 19.7782 19.5815 19.3834C19.8495 18.9886 20 18.4531 20 17.8947V14.7369C20.0036 12.7966 19.7455 10.8746 19.2406 9.08262C18.7357 7.29066 17.9941 5.66451 17.0589 4.29873ZM18.5714 17.8947H9.2598L14.1491 7.98688C14.2606 7.76109 14.3067 7.47927 14.2772 7.20339C14.2478 6.92752 14.1451 6.68019 13.9919 6.51583C13.8387 6.35146 13.6475 6.28352 13.4603 6.32695C13.2731 6.37038 13.1053 6.52162 12.9937 6.74741L7.49284 17.8947H1.42857V14.8855C1.42857 14.4803 1.44196 14.0803 1.46696 13.6842H3.57142C3.76086 13.6842 3.94254 13.5733 4.0765 13.3759C4.21045 13.1785 4.28571 12.9108 4.28571 12.6316C4.28571 12.3524 4.21045 12.0847 4.0765 11.8873C3.94254 11.6899 3.76086 11.579 3.57142 11.579H1.72053C2.64196 6.46583 5.6491 2.60005 9.2857 2.15005V5.2632C9.2857 5.54237 9.36095 5.81011 9.49491 6.00752C9.62886 6.20493 9.81054 6.31583 9.99998 6.31583C10.1894 6.31583 10.3711 6.20493 10.5051 6.00752C10.639 5.81011 10.7143 5.54237 10.7143 5.2632V2.14874C12.4863 2.3685 14.1682 3.39386 15.5277 5.08315C16.8872 6.77243 17.8572 9.04225 18.3035 11.579H16.4285C16.2391 11.579 16.0574 11.6899 15.9235 11.8873C15.7895 12.0847 15.7143 12.3524 15.7143 12.6316C15.7143 12.9108 15.7895 13.1785 15.9235 13.3759C16.0574 13.5733 16.2391 13.6842 16.4285 13.6842H18.5419C18.5607 14.0329 18.5714 14.3829 18.5714 14.7369V17.8947Z"/>
</svg>
